<svg id="Logo_c치psulas" data-name="Logo c치psulas" xmlns="http://www.w3.org/2000/svg" width="120.05" height="27.809" viewBox="0 0 120.05 27.809">
  <g id="Grupo_125" data-name="Grupo 125" transform="translate(68.286 3.517)">
    <path id="Trazado_23" data-name="Trazado 23" d="M297.147,42.383h-6.629a2.728,2.728,0,0,0,2.631,2.176,2.567,2.567,0,0,0,2.277-1.341h1.493a4.061,4.061,0,0,1-3.846,2.707A4.186,4.186,0,0,1,289,41.7a4.087,4.087,0,1,1,8.172-.076,3.811,3.811,0,0,1-.025.759M293.1,38.891a2.606,2.606,0,0,0-2.581,2.353h5.161a2.568,2.568,0,0,0-2.581-2.353" transform="translate(-289 -37.5)" fill="#fff"/>
    <path id="Trazado_24" data-name="Trazado 24" d="M329.267,46.395l-2-2.834-1.923,2.834H323.6l2.758-4.1L323.7,38.4h1.822l1.746,2.631,1.746-2.631h1.822l-2.606,3.9,2.783,4.1Z" transform="translate(-314.846 -38.172)" fill="#fff"/>
    <path id="Trazado_25" data-name="Trazado 25" d="M361.226,45.925a3.226,3.226,0,0,1-2.808-1.366h-.025v3.82H356.9V37.728h1.366v1.214h.025a3.337,3.337,0,0,1,2.834-1.442,4.117,4.117,0,0,1,4.149,4.326,4.023,4.023,0,0,1-4.048,4.1m-.2-7.033a2.836,2.836,0,1,0,2.732,2.859,2.8,2.8,0,0,0-2.732-2.859" transform="translate(-339.721 -37.5)" fill="#fff"/>
    <path id="Trazado_26" data-name="Trazado 26" d="M398.378,39.422a2.162,2.162,0,0,0-.885,2V45.8H396V37.8h1.391v.734h.025a2.393,2.393,0,0,1,2.024-.936v1.543a2.653,2.653,0,0,0-1.063.278" transform="translate(-368.929 -37.575)" fill="#fff"/>
    <path id="Trazado_27" data-name="Trazado 27" d="M420.247,42.383h-6.629a2.728,2.728,0,0,0,2.631,2.176,2.567,2.567,0,0,0,2.277-1.341h1.493a4.061,4.061,0,0,1-3.846,2.707A4.186,4.186,0,0,1,412.1,41.7a4.087,4.087,0,1,1,8.172-.076,3.811,3.811,0,0,1-.025.759M416.2,38.891a2.6,2.6,0,0,0-2.581,2.328h5.161a2.566,2.566,0,0,0-2.581-2.328" transform="translate(-380.956 -37.5)" fill="#fff"/>
    <path id="Trazado_28" data-name="Trazado 28" d="M450.534,46.074A3.719,3.719,0,0,1,449.5,45.9a2.6,2.6,0,0,1-1.8-2.631h1.493c.051.835.455,1.467,1.366,1.467a1.07,1.07,0,0,0,1.164-1.088c0-1.67-3.643-.81-3.643-3.643a2.39,2.39,0,0,1,2.5-2.3,2.351,2.351,0,0,1,2.454,2.328h-1.493a.994.994,0,0,0-1.037-.961.872.872,0,0,0-.936.86c0,.708.683.86,1.24,1.037,1.316.4,2.4,1.063,2.4,2.606a2.48,2.48,0,0,1-2.682,2.5" transform="translate(-407.549 -37.649)" fill="#fff"/>
    <path id="Trazado_29" data-name="Trazado 29" d="M474.734,46.074A3.718,3.718,0,0,1,473.7,45.9a2.6,2.6,0,0,1-1.8-2.631h1.493c.051.835.455,1.467,1.366,1.467a1.07,1.07,0,0,0,1.164-1.088c0-1.67-3.643-.81-3.643-3.643a2.39,2.39,0,0,1,2.5-2.3,2.351,2.351,0,0,1,2.454,2.328H475.72a.994.994,0,0,0-1.037-.961.872.872,0,0,0-.936.86c0,.708.683.86,1.24,1.037,1.316.4,2.4,1.063,2.4,2.606a2.459,2.459,0,0,1-2.656,2.5" transform="translate(-425.627 -37.649)" fill="#fff"/>
  </g>
  <g id="Grupo_126" data-name="Grupo 126">
    <path id="Trazado_30" data-name="Trazado 30" d="M22.4,45.925a4.213,4.213,0,1,1,3.947-5.541h-1.67a2.39,2.39,0,0,0-2.252-1.493,2.842,2.842,0,0,0-.025,5.667,2.44,2.44,0,0,0,2.277-1.467h1.67A4.132,4.132,0,0,1,22.4,45.925" transform="translate(-18.3 -33.983)" fill="#fff"/>
    <path id="Trazado_31" data-name="Trazado 31" d="M61.083,35.339V34.1h-.025a3.061,3.061,0,0,1-2.707,1.442,4.213,4.213,0,1,1,0-8.425,3.148,3.148,0,0,1,2.707,1.341h.025V27.319h1.493v8.02Zm.025-3.972a2.759,2.759,0,1,0-5.515,0,2.758,2.758,0,1,0,5.515,0m-3.593-4.832-.607-1.088L60.121,23.6l.632,1.164Z" transform="translate(-45.043 -23.6)" fill="#fff"/>
    <path id="Trazado_32" data-name="Trazado 32" d="M100.826,46a3.226,3.226,0,0,1-2.808-1.366h-.025v3.82H96.5V37.8h1.366v1.24h.025a3.336,3.336,0,0,1,2.834-1.442,4.1,4.1,0,0,1,4.149,4.326A4.049,4.049,0,0,1,100.826,46m-.2-7.033a2.837,2.837,0,0,0,.025,5.667,2.733,2.733,0,0,0,2.707-2.808,2.814,2.814,0,0,0-2.732-2.859" transform="translate(-76.716 -34.058)" fill="#fff"/>
    <path id="Trazado_33" data-name="Trazado 33" d="M135.634,46.074A3.718,3.718,0,0,1,134.6,45.9a2.622,2.622,0,0,1-1.8-2.631h1.493c.051.835.455,1.467,1.366,1.467a1.07,1.07,0,0,0,1.164-1.088c0-1.67-3.643-.81-3.643-3.643a2.39,2.39,0,0,1,2.5-2.3,2.351,2.351,0,0,1,2.454,2.328h-1.493a.994.994,0,0,0-1.037-.961.872.872,0,0,0-.936.86c0,.708.683.86,1.24,1.037,1.316.4,2.4,1.063,2.4,2.606a2.48,2.48,0,0,1-2.682,2.5" transform="translate(-103.832 -34.133)" fill="#fff"/>
    <rect id="Rect치ngulo_97" data-name="Rect치ngulo 97" width="1.493" height="10.676" transform="translate(44.654 1.063)" fill="#fff"/>
    <path id="Trazado_34" data-name="Trazado 34" d="M213.683,45.722v-1.24h-.025a3.061,3.061,0,0,1-2.707,1.442,4.213,4.213,0,1,1,0-8.425,3.148,3.148,0,0,1,2.707,1.341h.025V37.7H215.2v8.02Zm-2.732-6.831a2.751,2.751,0,0,0-2.732,2.859,2.759,2.759,0,1,0,2.732-2.859" transform="translate(-159.035 -33.983)" fill="#fff"/>
    <path id="Trazado_35" data-name="Trazado 35" d="M248.034,46.074A3.718,3.718,0,0,1,247,45.9a2.622,2.622,0,0,1-1.8-2.631h1.493c.051.835.455,1.467,1.366,1.467a1.07,1.07,0,0,0,1.164-1.088c0-1.67-3.643-.81-3.643-3.643a2.39,2.39,0,0,1,2.5-2.3,2.351,2.351,0,0,1,2.454,2.328h-1.493a.987.987,0,0,0-1.012-.961.872.872,0,0,0-.936.86c0,.708.683.86,1.24,1.037,1.316.4,2.4,1.063,2.4,2.606a2.515,2.515,0,0,1-2.707,2.5" transform="translate(-187.795 -34.133)" fill="#fff"/>
    <path id="Trazado_36" data-name="Trazado 36" d="M168.2,42.7a1.533,1.533,0,0,0,1.543,1.543,1.471,1.471,0,0,0,1.088-.455,1.623,1.623,0,0,0,.455-1.088V38.4H168.2v4.3Z" transform="translate(-130.276 -34.656)" fill="#80bc00"/>
    <path id="Trazado_37" data-name="Trazado 37" d="M167.038,38.4h-1.417v4.3a2.3,2.3,0,1,1-4.6,0V38.4H159.6v4.427a3.719,3.719,0,1,0,7.438,0V38.4Z" transform="translate(-123.851 -34.656)" fill="#fff"/>
  </g>
  <g id="Grupo_127" data-name="Grupo 127" transform="translate(68.304 15.209)">
    <path id="Trazado_38" data-name="Trazado 38" d="M405.238,103.525a1.3,1.3,0,0,0-.253-.025.872.872,0,0,0-.886.961v4.756a1.488,1.488,0,0,0,1.594,1.594c.886,0,1.29-.329,1.29-.759a.779.779,0,0,0-.076-.329,2,2,0,0,1-.784.2c-.557,0-.885-.253-.885-.936V105.9a3.718,3.718,0,0,1,.81-.1,2.813,2.813,0,0,1,1.012.152.893.893,0,0,0,.076-.354c0-.43-.278-.658-.987-.658a2.964,2.964,0,0,0-.911.152Z" transform="translate(-374.998 -98.541)" fill="#fff"/>
    <path id="Trazado_39" data-name="Trazado 39" d="M383.471,109.2a2.02,2.02,0,0,0-.4.076V113.4a1.749,1.749,0,0,1-1.442.784c-.557,0-.885-.354-.885-.987v-3.162c0-.481-.253-.81-.708-.81a1.021,1.021,0,0,0-.43.076v4.124a1.556,1.556,0,0,0,1.67,1.7,2.347,2.347,0,0,0,1.771-.81v.025a.577.577,0,0,0,.658.658,1.066,1.066,0,0,0,.455-.1V110.01c.025-.481-.2-.81-.683-.81" transform="translate(-356.696 -102.799)" fill="#fff"/>
    <path id="Trazado_40" data-name="Trazado 40" d="M477.9,108.6c-1.24,0-2.049.43-2.049.961a.476.476,0,0,0,.2.43,3.019,3.019,0,0,1,1.518-.4c.987,0,1.467.4,1.467,1.518v.127a7.211,7.211,0,0,0-.784-.051c-1.645,0-2.657.658-2.657,1.847a1.606,1.606,0,0,0,1.8,1.619,1.925,1.925,0,0,0,1.619-.81.64.64,0,0,0,.708.708.832.832,0,0,0,.43-.1V110.9a1.993,1.993,0,0,0-2.252-2.3m1.164,4.4a1.341,1.341,0,0,1-1.24.784c-.658,0-1.012-.3-1.012-.835,0-.607.455-1.012,1.518-1.012.228,0,.481.025.734.051Z" transform="translate(-428.408 -102.351)" fill="#fff"/>
    <path id="Trazado_41" data-name="Trazado 41" d="M456.914,110.27c0-.531.481-.759,1.138-.759a2.666,2.666,0,0,1,1.467.38.494.494,0,0,0,.177-.38c0-.506-.38-.911-1.72-.911-1.391,0-2.277.683-2.277,1.771,0,1.29,1.012,1.518,1.9,1.72.632.152,1.189.278,1.189.86,0,.557-.531.759-1.24.759a3.037,3.037,0,0,1-1.594-.379.555.555,0,0,0-.177.43c0,.531.481.885,1.7.885,1.644,0,2.454-.708,2.454-1.771,0-1.29-1.012-1.518-1.872-1.746-.557-.177-1.138-.278-1.138-.86" transform="translate(-413.543 -102.351)" fill="#fff"/>
    <path id="Trazado_42" data-name="Trazado 42" d="M422.655,108.6a1.7,1.7,0,0,0-1.467,1.088c.1-.708-.253-.961-.607-.961a3.165,3.165,0,0,0-.481.076v5.035a.626.626,0,0,0,.683.658.992.992,0,0,0,.455-.1v-3.77a1.515,1.515,0,0,1,1.493-1.138,3.564,3.564,0,0,1,.506.025.765.765,0,0,0,.126-.4c-.025-.228-.2-.506-.708-.506" transform="translate(-386.95 -102.351)" fill="#fff"/>
    <path id="Trazado_43" data-name="Trazado 43" d="M355.5,114.52a2.018,2.018,0,0,0,.4-.076V110.32a1.806,1.806,0,0,1,1.417-.784.987.987,0,0,1,1.063,1.113v3.036c0,.481.253.81.708.81a1.021,1.021,0,0,0,.43-.076V110.4a1.7,1.7,0,0,0-1.847-1.8,2.339,2.339,0,0,0-1.746.81v-.025c0-.379-.152-.658-.683-.658a.926.926,0,0,0-.455.1v4.883c-.025.481.2.81.708.81" transform="translate(-338.165 -102.351)" fill="#fff"/>
    <path id="Trazado_44" data-name="Trazado 44" d="M438.382,110.371c0-1.012-.759-1.771-2.15-1.771-1.543,0-2.631,1.189-2.631,3.036a2.683,2.683,0,0,0,2.859,2.985c1.113,0,1.9-.354,1.9-.911a.477.477,0,0,0-.152-.379,2.7,2.7,0,0,1-1.417.379,1.853,1.853,0,0,1-2-1.822,4.666,4.666,0,0,0,1.037.152c1.518,0,2.555-.632,2.555-1.67m-2.15-.835c.708,0,1.012.329,1.012.784,0,.531-.531.835-1.518.835a3.4,3.4,0,0,1-.885-.1,1.378,1.378,0,0,1,1.392-1.518" transform="translate(-397.034 -102.351)" fill="#fff"/>
    <path id="Trazado_45" data-name="Trazado 45" d="M290.848,87.543a.6.6,0,1,0-.683-.506.6.6,0,0,0,.683.506m3.264-2.3a.6.6,0,1,0-.683-.506.583.583,0,0,0,.683.506m3.82.025a.608.608,0,1,0-.582-.658.641.641,0,0,0,.582.658m3.238,2.277a.6.6,0,1,0,.253-1.164.589.589,0,0,0-.708.481.578.578,0,0,0,.455.683m1.417,2.378a.6.6,0,0,0-.658.531.581.581,0,0,0,.531.658.6.6,0,0,0,.658-.531.614.614,0,0,0-.531-.658m-12.8,1.366a.621.621,0,0,0,.481-.708.605.605,0,1,0-1.189.228.621.621,0,0,0,.708.481m5.338-.683c.051-.025.051-.1,0-.2a5.3,5.3,0,0,0-4.225-2.277,1.683,1.683,0,0,0-.987.278,7.963,7.963,0,0,1,5.035,2.15c.076.051.127.076.177.051M292.467,88c.076.051.127.076.177.051.025-.025.025-.076-.025-.152a3.28,3.28,0,0,1-.43-2.075A1.644,1.644,0,0,0,292.467,88m2.606.658c.025.076.051.152.152.152.076,0,.1-.051.1-.177-.051-2.049-1.771-3.643-2.909-3.264a5.14,5.14,0,0,1,2.656,3.289m-.127-2.353c.076,0,.051-.076.051-.127a2.39,2.39,0,0,1,.734-1.948l-.152.051c-.784.228-.885,1.214-.734,1.9,0,.1.051.127.1.127m1.645,3.567c.1-.025.076-.177.076-.177a4.3,4.3,0,0,1,2.277-4.124,2.76,2.76,0,0,0-2.707,2.656,3.47,3.47,0,0,0,.2,1.543c.025.076.076.127.152.1m.152-3.846a.148.148,0,0,0,.051.152q.076.038.152-.076a1.889,1.889,0,0,0-.506-2.2,4.2,4.2,0,0,1,.3,2.125m1.8,3.036s-.126.076-.076.177c.025.051.1.076.2.051a3.1,3.1,0,0,0,1.644-2.024,2.925,2.925,0,0,0-.228-2.125,4.324,4.324,0,0,1-.1,1.7,4.05,4.05,0,0,1-1.442,2.226m1.746-.81c-.076.076-.1.126-.051.177.025.051.1.051.177.025a4.074,4.074,0,0,1,2.15-.152,1.957,1.957,0,0,0-2.277-.051m-1.341,2.479a.081.081,0,0,0-.076.076c0,.051.051.076.152.1,1.645.177,3.264-.911,2.96-2.049a4.037,4.037,0,0,1-3.036,1.872m1.923.2c-.1,0-.127.025-.152.076-.025.076.051.126.1.152a4.132,4.132,0,0,1,1.746,1.24,1.84,1.84,0,0,0-1.7-1.467m-10.93-1.67a2.329,2.329,0,0,0,.506.81,3.216,3.216,0,0,0,2.5.885.116.116,0,0,0,.127-.1c0-.076-.076-.076-.152-.076a6.273,6.273,0,0,1-2.985-1.518m1.594,2.024c0-.076-.051-.1-.152-.127a1.929,1.929,0,0,0-1.872,1.265,4.261,4.261,0,0,1,1.9-1.037c.076,0,.127-.025.127-.1m9.993,5.136a11.985,11.985,0,0,0-4.5-1.189,5.651,5.651,0,0,1,.658-4.655c.076-.1.076-.152.025-.177s-.1,0-.177.051a4.213,4.213,0,0,0-.987,4.756c-.126,0-.885,0-1.164.025a2.205,2.205,0,0,0-.051-2.479c-.051-.051-.076-.076-.126-.051s-.051.076-.025.152a3.057,3.057,0,0,1-.228,2.4,11.773,11.773,0,0,0-4.174,1.164c-.025.025-.025.025-.025.051s.025.025.076.025a16.714,16.714,0,0,1,5.288-.81,17.594,17.594,0,0,1,5.313.81.093.093,0,0,0,.076-.025c.051-.025.051-.051.025-.051" transform="translate(-289.069 -83.9)" fill="#fff"/>
  </g>
</svg>
